<svg width="80" height="32" viewBox="0 0 154 32" fill="none" xmlns="http://www.w3.org/2000/svg">
<path d="M40.731 3.31772H43.9853V17.6589H40.731V3.31772Z" fill="#0F5644"/>
<path d="M46.925 3.31772H51.4389L54.5882 11.1304L57.7375 3.31772H62.2515V17.6589H58.9972V7.38461L55.9529 14.8762H52.9086L49.8643 7.38461V17.5518H46.61V3.31772H46.925Z" fill="#0F5644"/>
<path d="M69.0744 3.31772H73.0635L78.2073 17.6589H74.953L74.0082 15.0903H68.1296L67.1848 17.5518H63.9305L69.0744 3.31772ZM73.0635 12.4147L71.0689 6.84949L69.0744 12.4147H73.0635Z" fill="#0F5644"/>
<path d="M85.556 3.31772C87.4456 3.31772 88.8103 3.74581 89.8601 4.49498C90.9098 5.35116 91.3297 6.52842 91.3297 8.02675C91.3297 9.09698 91.0148 10.0602 90.4899 10.8094C89.965 11.5585 89.2302 12.0936 88.2854 12.4147L91.3297 17.6589H87.5506L84.8212 12.8428H82.9316V17.6589H79.6774V3.31772H85.556ZM85.4511 10.1672C86.2909 10.1672 86.8157 9.95317 87.3406 9.6321C87.7605 9.31103 87.9705 8.88294 87.9705 8.2408C87.9705 7.59866 87.7605 7.17056 87.3406 6.84949C86.9207 6.52842 86.2909 6.31437 85.4511 6.31437H82.9316V10.0602H85.4511V10.1672Z" fill="#0F5644"/>
<path d="M96.8931 6.10033H92.4841V3.31772H104.661V6.20735H100.147V17.6589H96.8931V6.10033Z" fill="#0F5644"/>
<path d="M106.236 3.31772H109.49V17.6589H106.236V3.31772Z" fill="#0F5644"/>
<path d="M111.695 10.3813C111.695 9.41814 111.905 8.45493 112.22 7.49172C112.64 6.63553 113.164 5.77934 113.794 5.1372C114.424 4.49506 115.264 3.95995 116.104 3.53185C116.944 3.10376 117.888 2.99673 118.938 2.99673C119.883 2.99673 120.723 3.10376 121.458 3.42483C122.297 3.7459 122.927 4.06697 123.557 4.60209C124.187 5.1372 124.712 5.67232 125.132 6.42148C125.552 7.17065 125.867 7.91981 125.972 8.776H122.402C122.192 8.02683 121.772 7.38469 121.143 6.9566C120.513 6.52851 119.778 6.31446 118.938 6.31446C118.413 6.31446 117.888 6.42148 117.363 6.63553C116.839 6.84958 116.524 7.17065 116.104 7.49172C115.789 7.81279 115.474 8.24088 115.264 8.776C115.054 9.31112 114.949 9.73921 114.949 10.3813C114.949 10.9165 115.054 11.4516 115.264 11.9867C115.474 12.5218 115.789 12.9499 116.104 13.271C116.419 13.5921 116.839 13.9131 117.363 14.1272C117.888 14.3412 118.308 14.4482 118.938 14.4482C119.778 14.4482 120.513 14.2342 121.143 13.8061C121.772 13.378 122.192 12.7359 122.402 11.9867H125.972C125.867 12.8429 125.552 13.5921 125.132 14.3412C124.712 15.0904 124.187 15.6255 123.557 16.1606C122.927 16.6957 122.192 17.1238 121.458 17.3379C120.723 17.5519 119.778 17.766 118.938 17.766C117.888 17.766 116.944 17.5519 116.104 17.2308C115.264 16.8028 114.424 16.2676 113.794 15.6255C113.164 14.9834 112.64 14.1272 112.22 13.271C111.8 12.4148 111.695 11.4516 111.695 10.3813Z" fill="#0F5644"/>
<path d="M134.055 17.7659C132.06 17.7659 130.59 17.2308 129.541 16.2676C128.491 15.3043 127.966 13.806 127.966 11.8796V3.31772H131.22V11.6655C131.22 12.6288 131.43 13.3779 131.955 13.913C132.48 14.4482 133.215 14.6622 134.055 14.6622C134.999 14.6622 135.629 14.4482 136.154 13.913C136.679 13.3779 136.889 12.6288 136.889 11.6655V3.31772H140.143V11.9866C140.143 13.913 139.618 15.3043 138.569 16.3746C137.519 17.3378 135.944 17.7659 134.055 17.7659Z" fill="#0F5644"/>
<path d="M142.558 7.49172C142.558 6.10041 143.083 4.92316 144.027 4.17399C144.972 3.42483 146.337 2.99673 148.121 2.99673C149.906 2.99673 151.376 3.42483 152.216 4.28102C153.055 5.1372 153.58 6.31446 153.685 7.70576H150.431C150.431 7.06362 150.221 6.63553 149.906 6.31446C149.486 5.99339 148.961 5.77934 148.121 5.77934C147.387 5.77934 146.862 5.88637 146.547 6.20744C146.127 6.42148 146.022 6.84958 146.022 7.27767C146.022 7.59874 146.127 7.81279 146.232 8.02684C146.337 8.24088 146.547 8.45493 146.862 8.56195C147.072 8.66898 147.387 8.776 147.807 8.88302C148.121 8.99005 148.541 9.09707 148.856 9.09707C149.486 9.20409 150.011 9.31112 150.641 9.52516C151.271 9.63219 151.796 9.84623 152.321 10.1673C152.845 10.4884 153.265 10.8094 153.58 11.3446C153.895 11.8797 154.105 12.5218 154.105 13.378C154.105 14.6623 153.685 15.7325 152.74 16.4817C151.796 17.2308 150.326 17.6589 148.436 17.6589C146.442 17.6589 144.972 17.2308 143.922 16.3747C142.873 15.5185 142.453 14.4482 142.453 12.9499H145.707C145.812 14.2342 146.757 14.8763 148.436 14.8763C149.171 14.8763 149.801 14.7693 150.221 14.4482C150.641 14.2342 150.851 13.8061 150.851 13.378C150.851 13.0569 150.746 12.8429 150.641 12.6288C150.431 12.4148 150.221 12.3078 150.011 12.0937C149.696 11.9867 149.381 11.8797 149.066 11.7727C148.646 11.6656 148.331 11.5586 147.912 11.5586C147.387 11.4516 146.757 11.3446 146.127 11.1305C145.497 11.0235 144.972 10.8094 144.552 10.4884C144.027 10.1673 143.712 9.73921 143.398 9.31112C142.663 8.99005 142.558 8.34791 142.558 7.49172Z" fill="#0F5644"/>
<path d="M39.8908 28.8957V20.2268H40.5207V28.2536H44.7197V28.8957H39.8908Z" fill="#0F5644"/>
<path d="M59.1016 28.8957H54.3776V20.2268H59.1016V20.762H54.9025V23.9727H58.7866V24.6148H54.9025V28.3606H59.1016V28.8957Z" fill="#0F5644"/>
<path d="M73.5881 25.7921H70.0189L68.8642 28.8957H68.2343L71.6985 20.2268H72.1184L75.5826 28.8957H74.8478L73.5881 25.7921ZM70.2289 25.2569H73.3781L72.2234 22.1533C72.1184 21.9392 72.0135 21.6181 71.9085 21.19C71.8035 21.6181 71.6985 21.9392 71.5935 22.2603L70.2289 25.2569Z" fill="#0F5644"/>
<path d="M85.5554 25.1499V28.8957H84.9255V20.2268H87.0251C88.0748 20.2268 88.9146 20.4409 89.4395 20.869C89.9644 21.2971 90.1744 21.8322 90.1744 22.6884C90.1744 23.2235 90.0694 23.7586 89.7544 24.1867C89.4395 24.6148 89.0196 24.8288 88.3897 25.0429L90.8042 29.0028H90.0694L87.8649 25.2569H85.5554V25.1499ZM85.5554 24.6148H87.235C87.9698 24.6148 88.4947 24.4007 88.9146 24.0797C89.3345 23.7586 89.5445 23.2235 89.5445 22.6884C89.5445 22.0462 89.3345 21.5111 88.9146 21.2971C88.4947 20.976 87.8649 20.869 86.9201 20.869H85.4504V24.6148H85.5554Z" fill="#0F5644"/>
<path d="M106.865 28.8961H106.235L101.091 21.1904C101.091 22.1536 101.196 22.7957 101.196 23.2238V28.8961H100.567V20.2272H101.196L106.34 27.8258C106.34 27.0767 106.235 26.4345 106.235 25.7924V20.1201H106.865V28.8961Z" fill="#0F5644"/>
<path d="M117.573 28.8957V20.2268H118.203V28.8957H117.573Z" fill="#0F5644"/>
<path d="M135.209 28.8961H134.579L129.435 21.1904C129.435 22.1536 129.54 22.7957 129.54 23.2238V28.8961H128.91V20.2272H129.54L134.684 27.8258C134.684 27.0767 134.579 26.4345 134.579 25.7924V20.1201H135.209V28.8961Z" fill="#0F5644"/>
<path d="M149.381 24.5084H152.635V28.4683C151.795 28.7894 150.85 29.0034 149.8 29.0034C148.436 29.0034 147.386 28.5753 146.651 27.8262C145.916 27.077 145.601 26.0068 145.601 24.5084C145.601 23.6523 145.811 22.9031 146.126 22.1539C146.441 21.4048 146.966 20.9767 147.701 20.5486C148.331 20.2275 149.171 20.0135 150.01 20.0135C150.955 20.0135 151.795 20.2275 152.53 20.5486L152.32 21.0837C151.585 20.7626 150.745 20.5486 150.01 20.5486C148.856 20.5486 147.911 20.8696 147.281 21.6188C146.651 22.368 146.231 23.2242 146.231 24.5084C146.231 25.7927 146.546 26.7559 147.176 27.3981C147.806 28.0402 148.751 28.3613 150.01 28.3613C150.85 28.3613 151.48 28.2543 152.005 28.0402V25.0436H149.381V24.5084V24.5084Z" fill="#0F5644"/>
<path d="M14.1719 17.8729C14.5918 17.8729 14.8017 17.7659 15.0117 17.5518C15.2216 17.4448 15.2216 17.1237 15.2216 17.0167C15.0117 17.2308 13.8569 17.9799 14.1719 17.8729Z" fill="#0F5644"/>
<path d="M16.7961 16.5886L17.0061 17.3378C17.0061 17.3378 17.0061 17.4448 17.111 17.7659C17.111 17.7659 17.8459 17.3378 18.5807 17.0167C18.6857 17.0167 18.6857 16.9097 18.7907 16.9097V0H11.5473V17.7659C11.8622 17.9799 12.1772 18.087 12.2821 18.087C12.4921 17.9799 12.702 17.9799 13.1219 18.087V17.9799C13.1219 17.9799 13.017 17.4448 13.2269 17.1237C13.4369 16.8027 13.5418 16.5886 13.6468 16.4816C13.7518 16.3746 13.9618 15.9465 13.9618 15.8395C13.9618 15.7324 14.0667 15.5184 13.9618 15.4114C13.9618 15.1973 14.2767 14.8763 14.2767 14.8763C14.3817 14.8763 14.5916 14.6622 14.5916 14.6622L14.6966 14.4482C14.6966 14.4482 14.3817 14.5552 14.1717 14.7692C14.1717 14.7692 14.1717 14.4482 14.3817 14.3411C14.5916 14.2341 14.5916 14.1271 14.5916 14.1271C14.5916 14.1271 14.3817 14.0201 14.3817 13.806C14.3817 13.592 14.4866 13.4849 14.4866 13.2709C14.4866 13.1639 14.4866 13.0569 14.4866 13.0569C14.4866 13.0569 14.5916 13.1639 14.6966 13.2709C14.6966 13.3779 14.8016 13.3779 14.8016 13.4849V13.699C14.8016 13.699 15.0115 13.592 15.2215 13.592C15.4314 13.592 15.4314 13.592 15.4314 13.592C15.4314 13.592 15.4314 13.3779 15.5364 13.1639C15.6414 13.0569 15.6414 12.9498 15.6414 12.9498C15.6414 12.9498 15.8513 13.1639 15.8513 13.2709C15.9563 13.3779 15.9563 13.4849 15.9563 13.699C15.9563 13.806 15.9563 13.913 15.8513 14.0201C15.7463 14.2341 15.7463 14.2341 15.8513 14.3411C15.9563 14.5552 16.1663 14.8763 16.1663 15.0903C16.1663 15.3043 16.3762 15.7324 16.3762 16.0535C16.6911 16.3746 16.6911 16.4816 16.7961 16.5886Z" fill="#0F5644"/>
<path d="M17.6362 18.6222L17.2163 17.766C17.3213 18.0871 17.6362 18.7292 18.2661 19.5854C18.686 20.1205 18.7909 20.6556 18.8959 21.0837C18.8959 21.0837 18.7909 20.5486 18.686 20.2275C18.581 20.0135 18.371 19.6924 18.371 19.6924L18.2661 19.5854C18.2661 19.5854 18.1611 19.3713 17.9511 19.0503C17.7412 18.8362 17.7412 18.7292 17.6362 18.6222Z" fill="#0F5644"/>
<path d="M18.7923 24.0803V22.2609C18.7923 22.3679 18.6864 22.475 18.6864 22.475C18.6864 22.475 18.5806 23.3312 18.5806 23.7593C18.6864 23.7593 18.7923 23.8663 18.7923 24.0803Z" fill="#0F5644"/>
<path d="M15.0115 25.7926C15.6413 26.5417 16.3762 27.0768 16.3762 27.0768C16.4812 26.9698 16.4811 26.8628 16.5861 26.7558C16.6911 26.5417 16.5861 26.3277 16.4811 26.1136C16.3762 25.8996 16.2712 24.9364 16.2712 24.9364L15.3264 23.0099L14.0667 22.5818C14.0667 22.5818 13.7518 23.117 13.7518 23.331C13.7518 23.6521 14.3816 25.0434 15.0115 25.7926Z" fill="#0F5644"/>
<path d="M18.4757 27.398L18.7906 27.0769V25.7927C18.6856 25.5786 18.4757 25.3646 18.3707 25.0435C18.0558 24.4014 17.7408 22.582 17.7408 22.582L16.3761 23.2241C16.3761 23.2241 16.4811 23.4381 16.4811 23.6522C16.4811 23.8662 16.6911 24.5084 17.111 25.0435C17.4259 25.5786 17.216 25.6856 17.111 26.0067C17.006 26.3278 17.111 26.5418 17.216 27.0769C17.3209 27.6121 16.901 27.7191 16.901 27.7191C16.901 27.7191 16.5861 27.6121 16.3761 27.6121C16.2712 27.6121 16.0612 27.6121 15.9562 27.6121C15.7463 27.6121 15.6413 27.291 15.5363 27.0769C15.4314 26.8629 15.3264 26.8629 15.3264 26.8629C15.3264 26.8629 14.8015 25.7927 13.9617 25.1505C13.1219 24.5084 13.2269 23.9733 13.2269 23.9733L11.6522 22.0468V31.786H18.8956V27.505L18.4757 27.398ZM13.0169 26.0067C13.0169 26.2208 12.702 26.2208 12.702 26.2208V26.5418L12.597 26.9699L11.8622 26.4348H11.9671L12.2821 26.1137C12.2821 26.1137 12.3871 25.7927 12.492 25.6856C12.597 25.5786 12.492 25.4716 12.492 25.0435C12.3871 24.6154 12.597 23.3311 12.597 23.3311C12.597 23.3311 13.3318 24.0803 13.2269 24.0803C13.1219 24.1873 13.0169 24.4014 13.0169 24.4014C13.0169 24.4014 12.9119 25.7927 13.0169 26.0067Z" fill="#0F5644"/>
<path d="M26.5592 6.63552L27.609 4.60208L28.6588 2.56863L23.41 10.7024L24.6697 7.49171L22.4652 11.4516C22.4652 11.4516 23.9348 8.45492 24.1448 7.81278C24.3547 7.17064 24.7747 5.99338 24.7747 5.99338C24.7747 5.99338 24.8796 5.35124 24.7747 5.24422C24.6697 5.03017 21.5204 12.2007 21.5204 12.2007C21.5204 12.2007 22.3602 10.1673 22.4652 9.52515C22.4652 8.88301 22.2552 8.77599 22.2552 8.77599C22.2552 8.77599 21.9403 11.4516 20.7856 12.7359C19.5258 14.0201 20.0507 15.1974 19.9457 15.5185C19.8408 15.8395 19.8408 16.5887 18.896 16.9098C17.9512 17.2308 17.1114 17.766 17.1114 17.766L17.6363 18.7292C17.7412 18.9432 17.8462 19.0502 17.9512 19.1573C18.1612 19.5854 18.3711 19.7994 18.3711 19.7994L19.1059 19.6924C19.1059 19.6924 19.3159 19.3713 19.001 19.0502C18.686 18.7292 18.4761 18.6221 18.4761 18.5151L18.3711 18.3011C18.3711 18.3011 18.686 18.5151 19.2109 18.7292C19.7358 18.9432 20.4706 19.0502 20.4706 19.0502L20.3657 18.5151C20.3657 18.4081 20.4706 18.3011 20.3657 18.1941C20.2607 18.087 19.8408 17.98 19.5258 17.873C19.2109 17.873 19.2109 17.766 19.2109 17.766L21.4154 18.087C21.4154 18.087 21.3104 17.6589 21.1005 17.4449C20.8905 17.2308 20.4706 17.1238 20.4706 17.1238L20.2607 17.0168L20.1557 16.9098C20.1557 16.9098 21.1005 17.2308 21.7303 17.3379C22.3602 17.4449 22.9901 17.766 22.9901 17.766C22.9901 17.766 22.8851 17.3379 22.6751 17.0168C22.3602 16.6957 22.4652 16.6957 22.1502 16.5887C21.8353 16.4817 21.3104 16.2676 21.3104 16.2676L20.8905 16.0536L23.8299 16.9098C23.8299 16.9098 23.6199 16.1606 23.305 15.9466C22.9901 15.7325 21.8353 15.4114 21.8353 15.4114C21.8353 15.4114 23.8299 15.8395 24.0398 15.7325C24.2498 15.6255 24.6697 15.6255 24.6697 15.6255C24.6697 15.6255 24.1448 14.9833 23.9348 14.8763C23.8299 14.7693 23.41 14.8763 22.9901 14.8763C22.6751 14.8763 21.8353 14.6623 21.8353 14.6623C21.8353 14.6623 22.6751 14.7693 23.305 14.6623C23.9348 14.5553 24.4597 14.4482 24.7747 13.9131C25.0896 13.485 25.4045 13.0569 25.4045 13.0569C25.4045 13.0569 25.5095 12.8429 25.2995 12.8429C25.0896 12.8429 24.8796 12.7359 24.8796 12.7359C24.8796 12.7359 24.7747 12.7359 24.5647 12.9499C24.3547 13.164 23.8299 13.485 23.305 13.592C22.8851 13.6991 22.7801 13.8061 22.6751 13.6991C22.5702 13.6991 22.2552 13.6991 22.2552 13.6991C22.2552 13.6991 23.6199 13.378 24.0398 13.0569C24.3547 12.7359 25.0896 12.2007 25.5095 11.4516C25.9294 10.5954 26.2443 9.95325 26.2443 9.95325C26.2443 9.95325 25.7194 10.0603 25.4045 10.5954C25.0896 11.0235 24.3547 11.9867 23.9348 12.3078C23.5149 12.6288 23.41 12.7359 23.2 12.8429C22.9901 12.9499 22.8851 12.9499 22.8851 12.9499C22.8851 12.9499 23.9348 12.3078 24.1448 11.9867C24.3547 11.6656 24.9846 10.9165 25.4045 10.1673C25.8244 9.41813 26.7692 7.38469 26.7692 7.38469C26.7692 7.38469 26.0344 7.9198 25.7194 8.56194C25.4045 9.09706 23.9348 11.0235 23.9348 11.0235L23.305 11.6656C23.305 11.6656 24.8796 9.7392 25.0896 9.20409C25.2995 8.66897 26.5592 6.63552 26.5592 6.63552Z" fill="#0F5644"/>
<path d="M2.30948 6.8496L1.15474 4.81616L0 2.78271L5.56374 10.8095L4.19905 7.59877L6.6135 11.5586C6.6135 11.5586 4.93388 8.56198 4.72393 7.91984C4.51398 7.38472 4.09407 6.20746 4.09407 6.20746C4.09407 6.20746 3.98909 5.56532 4.09407 5.4583C4.19905 5.24425 7.66326 12.4148 7.66326 12.4148C7.66326 12.4148 6.6135 10.2744 6.6135 9.63221C6.6135 8.99007 6.82345 8.88305 6.82345 8.88305C6.82345 8.88305 7.24336 11.5586 8.50307 12.8429C9.76278 14.1272 9.34288 15.3045 9.44785 15.6255C9.55283 15.9466 9.65781 16.6958 10.6026 17.0168C11.5474 17.3379 13.227 18.1941 13.227 18.1941C13.227 18.1941 12.5971 18.4081 12.3872 18.5152C12.2822 18.6222 12.0723 18.7292 11.9673 18.8362C11.8623 18.9432 11.6524 19.2643 11.6524 19.3713C11.4424 19.7994 11.3374 20.0135 11.3374 20.0135L10.6026 19.9065C10.6026 19.9065 10.3926 19.5854 10.7076 19.2643C11.0225 18.9432 11.2324 18.8362 11.2324 18.7292C11.2324 18.6222 11.3374 18.5152 11.3374 18.5152C11.3374 18.5152 11.0225 18.7292 10.4976 18.9432C9.97274 19.1573 9.2379 19.2643 9.2379 19.2643C9.2379 19.2643 9.34288 18.7292 9.2379 18.7292C9.2379 18.6222 9.13293 18.5152 9.2379 18.4081C9.34288 18.3011 9.76278 18.1941 10.0777 18.0871C10.3926 17.98 10.3926 17.98 10.3926 17.98L8.08316 18.1941C8.08316 18.1941 8.18814 17.766 8.39809 17.5519C8.60805 17.3379 9.02795 17.1239 9.02795 17.1239L9.2379 17.0168L9.34288 16.9098C9.34288 16.9098 8.39809 17.3379 7.76824 17.4449C7.13838 17.5519 6.50852 17.873 6.50852 17.873C6.50852 17.873 6.50852 17.4449 6.82345 17.1239C7.13838 16.8028 7.0334 16.8028 7.34833 16.6958C7.66326 16.5887 8.18814 16.3747 8.18814 16.3747L8.39809 16.1606L5.45876 17.1239C5.45876 17.1239 5.66871 16.3747 5.98364 16.1606C6.29857 15.8396 7.45331 15.6255 7.45331 15.6255C7.45331 15.6255 5.45876 16.0536 5.24881 16.0536C5.03886 16.0536 4.61895 15.9466 4.61895 15.9466C4.61895 15.9466 5.14383 15.1974 5.24881 15.0904C5.35378 14.9834 5.77369 15.0904 6.19359 14.9834C6.50852 14.9834 7.34833 14.8764 7.34833 14.8764C7.34833 14.8764 6.50852 14.9834 5.87867 14.8764C5.24881 14.8764 4.72393 14.6623 4.30402 14.2342C3.88412 13.8061 3.67417 13.378 3.67417 13.378C3.67417 13.378 3.56919 13.164 3.77914 13.164C4.09407 13.164 4.19905 13.057 4.19905 13.057C4.19905 13.057 4.30402 13.057 4.51398 13.271C4.72393 13.4851 5.35378 13.8061 5.77369 13.9131C6.19359 14.0202 6.29857 14.0202 6.40355 14.0202C6.50852 14.0202 6.82345 14.0202 6.82345 14.0202C6.82345 14.0202 5.35378 13.6991 5.03886 13.378C4.61895 13.057 3.98909 12.6289 3.56919 11.7727C3.14929 11.0235 2.72938 10.2744 2.72938 10.2744C2.72938 10.2744 3.25426 10.3814 3.56919 10.9165C3.88412 11.3446 4.72393 12.3078 5.14383 12.6289C5.56374 12.8429 5.66871 13.057 5.98364 13.057C6.19359 13.164 6.29857 13.164 6.29857 13.164C6.29857 13.164 5.24881 12.5218 4.93388 12.2008C4.72393 11.8797 3.98909 11.2376 3.56919 10.4884C3.14929 9.73924 2.09952 7.70579 2.09952 7.70579C2.09952 7.70579 2.93933 8.24091 3.25426 8.77603C3.56919 9.31114 5.14383 11.2376 5.14383 11.2376L5.77369 11.8797C5.77369 11.8797 4.09407 9.95328 3.88412 9.41817C3.67417 8.88305 2.30948 6.8496 2.30948 6.8496Z" fill="#0F5644"/>
</svg>
